<?xml version="1.0"?>
<svg xmlns="http://www.w3.org/2000/svg" id="Layer_3" enable-background="new 0 0 64 64" height="512px" viewBox="0 0 64 64" width="512px"><g><path d="m59.141 7.369c-2.9-3.988-7.576-6.369-12.506-6.369h-.134c-3.154 0-6.178.969-8.744 2.802-2.353 1.68-3.757 4.409-3.757 7.3 0 2.789 1.263 5.369 3.463 7.081l2.408 1.873c-3.032 2.026-4.871 5.405-4.871 9.124v17.836c0 2.779.729 5.524 2.105 7.934.001.001.049.086.05.087 1.207 2.113 1.845 4.514 1.845 6.946v1.017h2v-1.017c0-2.779-.729-5.524-2.105-7.934-.001-.001-.049-.086-.05-.087-1.207-2.112-1.845-4.513-1.845-6.945v-17.837c0-3.27 1.745-6.209 4.565-7.808l1.201.934c-.503 1.246-.766 2.589-.766 3.93v.528c0 1.4.287 2.802.834 4.093l-1.336 1.669c-1.61 2.015-2.498 4.543-2.498 7.124v5.366c0 2.779.729 5.524 2.105 7.934.001.001.049.086.05.087 1.207 2.113 1.845 4.514 1.845 6.946v3.017h2v-3.017c0-2.779-.729-5.524-2.105-7.934-.001-.001-.049-.086-.05-.087-1.018-1.781-1.625-3.769-1.792-5.807.736 1.058 1.646 2.001 2.719 2.767 1.902 1.36 4.143 2.078 6.481 2.078 3.894 0 7.558-2.074 9.562-5.414 2.083-3.473 3.185-7.45 3.185-11.501v-14.849c0-4.292-1.335-8.396-3.859-11.867zm1.859 26.716c0 3.688-1.003 7.309-2.9 10.472-1.645 2.741-4.652 4.443-7.847 4.443-1.919 0-3.758-.589-5.319-1.705-2.463-1.759-3.934-4.617-3.934-7.647 0-2.126.731-4.211 2.061-5.872l1.42-1.776h.376c2.404 0 4.664.936 6.364 2.636l.071.071 1.414-1.414-.071-.071c-2.076-2.078-4.839-3.222-7.778-3.222h-.2c-.423-1.025-.657-2.129-.657-3.236v-.528c0-1.237.286-2.472.811-3.594l.588-.442c1.893-1.419 4.237-2.2 6.601-2.2v-2c-2.794 0-5.564.923-7.801 2.6l-.188.141-5.32-4.138c-1.711-1.329-2.691-3.335-2.691-5.501 0-2.246 1.091-4.367 2.919-5.672 2.226-1.59 4.848-2.43 7.582-2.43h.134c4.293 0 8.363 2.073 10.889 5.545 2.274 3.127 3.476 6.824 3.476 10.691z" data-original="#000000" class="active-path" data-old_color="#000000" fill="#2C88D9"/><path d="m45 5h2v2h-2z" data-original="#000000" class="active-path" data-old_color="#000000" fill="#2C88D9"/><path d="m49 7h2v2h-2z" data-original="#000000" class="active-path" data-old_color="#000000" fill="#2C88D9"/><path d="m49 46h2v2h-2z" data-original="#000000" class="active-path" data-old_color="#000000" fill="#2C88D9"/><path d="m53 42h2v2h-2z" data-original="#000000" class="active-path" data-old_color="#000000" fill="#2C88D9"/><path d="m45 38h2v2h-2z" data-original="#000000" class="active-path" data-old_color="#000000" fill="#2C88D9"/><path d="m30 11.102c0-2.891-1.404-5.62-3.757-7.3-2.566-1.833-5.59-2.802-8.744-2.802h-.134c-4.93 0-9.606 2.381-12.506 6.368-2.524 3.472-3.859 7.576-3.859 11.868v14.849c0 4.05 1.102 8.027 3.186 11.501 2.003 3.34 5.668 5.414 9.561 5.414 2.338 0 4.579-.718 6.481-2.077 1.073-.766 1.984-1.709 2.719-2.767-.168 2.04-.782 4.038-1.839 5.89-1.379 2.413-2.108 5.158-2.108 7.937v3.017h2v-3.017c0-2.432.638-4.833 1.892-7.029 1.379-2.413 2.108-5.158 2.108-7.937v-5.367c0-.001 0-.002 0-.002 0-2.579-.888-5.107-2.498-7.121l-1.336-1.669c.547-1.292.834-2.694.834-4.094v-.528c0-1.341-.263-2.684-.766-3.929l1.201-.934c2.82 1.598 4.565 4.537 4.565 7.807v17.836c0 2.432-.638 4.833-1.892 7.029-1.379 2.414-2.108 5.159-2.108 7.938v1.017h2v-1.017c0-2.432.638-4.833 1.892-7.029 1.379-2.413 2.108-5.158 2.108-7.937v-17.837c0-3.719-1.839-7.098-4.871-9.125l2.408-1.873c2.2-1.711 3.463-4.292 3.463-7.08zm-4.691 5.502-5.32 4.138-.189-.142c-2.236-1.677-5.006-2.6-7.8-2.6v2c2.364 0 4.708.781 6.6 2.2l.589.442c.525 1.122.811 2.357.811 3.594v.528c0 1.107-.234 2.211-.658 3.236h-.2c-2.938 0-5.701 1.144-7.778 3.222l-.071.071 1.414 1.414.071-.071c1.7-1.7 3.96-2.636 6.364-2.636h.376l1.42 1.776c1.331 1.661 2.062 3.746 2.062 5.874 0 3.028-1.471 5.886-3.934 7.645-1.561 1.116-3.4 1.705-5.319 1.705-3.195 0-6.202-1.702-7.847-4.443-1.897-3.162-2.9-6.784-2.9-10.472v-14.849c0-3.867 1.202-7.564 3.477-10.691 2.525-3.472 6.595-5.545 10.888-5.545h.134c2.734 0 5.356.84 7.582 2.43 1.828 1.305 2.919 3.425 2.919 5.672 0 2.166-.98 4.172-2.691 5.502z" data-original="#000000" class="active-path" data-old_color="#000000" fill="#2C88D9"/><path d="m17 5h2v2h-2z" data-original="#000000" class="active-path" data-old_color="#000000" fill="#2C88D9"/><path d="m13 7h2v2h-2z" data-original="#000000" class="active-path" data-old_color="#000000" fill="#2C88D9"/><path d="m13 46h2v2h-2z" data-original="#000000" class="active-path" data-old_color="#000000" fill="#2C88D9"/><path d="m9 42h2v2h-2z" data-original="#000000" class="active-path" data-old_color="#000000" fill="#2C88D9"/><path d="m17 38h2v2h-2z" data-original="#000000" class="active-path" data-old_color="#000000" fill="#2C88D9"/></g> </svg>
