<?xml version="1.0"?>
<svg xmlns="http://www.w3.org/2000/svg" xmlns:xlink="http://www.w3.org/1999/xlink" version="1.1" id="Capa_1" x="0px" y="0px" viewBox="0 0 512 512" style="enable-background:new 0 0 512 512;" xml:space="preserve" width="512px" height="512px"><g><g>
	<g transform="translate(1 1)">
		<path style="fill:#A4C2F7;" d="M152.6,485.4c-3.82,0.025-7.638-0.174-11.435-0.597c-23.417-1.229-43.696-16.667-51.115-38.912    c19.968-49.664,38.997-114.091,96.683-114.091c7.253,0,13.995-0.341,20.395-0.853c10.205-0.968,20.31-2.795,30.208-5.461    C186.819,371.053,269.763,485.4,152.6,485.4z" data-original="#A4C2F7"/>
		<path style="fill:#E3E7F2;" d="M141.166,484.803c-23.417-1.229-43.696-16.667-51.115-38.912    c19.968-49.664,38.997-114.091,96.683-114.091c7.253,0,13.995-0.341,20.395-0.853    C169.496,377.454,234.264,476.355,141.166,484.803z" data-original="#E3E7F2"/>
		<path style="fill:#A4C2F7;" d="M502.467,50.2c0,42.667-72.533,55.467-110.933,93.867s-42.667,93.867-68.267,119.467    c-7.936,7.936-15.872,17.493-25.6,26.965l-34.133,24.917c-23.894,11.604-50.251,17.227-76.8,16.384c-1.451,0-2.901,0-4.352,0.085    c-89.259,5.205-81.92,170.581-140.715,170.581c-4.134,0.041-8.172-1.245-11.52-3.669C7.534,483.182,7.534,419.096,7.534,374.467    V229.4c0-121.6,76.8-221.867,213.333-221.867h179.2C476.867,7.534,502.467,16.067,502.467,50.2z" data-original="#A4C2F7"/>
		<g>
			<path style="fill:#E3E7F2;" d="M476.867,50.2c0,42.667-72.533,55.467-110.933,93.867s-42.667,93.867-68.267,119.467     c-7.936,7.936-15.872,17.493-25.6,26.965l-34.133,24.917c-17.378,8.684-36.27,13.928-55.637,15.445     c-6.571,0.597-13.653,0.939-21.163,0.939c-85.76,0-86.016,142.421-130.987,166.997C7.534,483.182,7.534,419.096,7.534,374.467     V229.4c0-121.6,76.8-221.867,213.333-221.867h153.6C451.267,7.534,476.867,16.067,476.867,50.2z" data-original="#E3E7F2"/>
			<path style="fill:#E3E7F2;" d="M235.587,197.537c17.956,9.572,28.824,28.6,27.947,48.929V485.4     c0,9.426,7.641,17.067,17.067,17.067s17.067-7.641,17.067-17.067V246.467c-0.582-30.113,1.332-60.223,5.721-90.02     C287.066,220.886,258.87,206.6,235.587,197.537z" data-original="#E3E7F2"/>
		</g>
		<path style="fill:#FFFFFF;" d="M30.147,498.798c3.348,2.425,7.386,3.711,11.52,3.669c4.927,0,9.772-1.267,14.068-3.68    c-22.601-15.632-22.601-79.7-22.601-124.32V229.4c0-121.6,76.8-221.867,213.333-221.867h-25.6    C84.334,7.534,7.534,107.8,7.534,229.4v145.067C7.534,419.096,7.534,483.182,30.147,498.798z" data-original="#FFFFFF"/>
	</g>
	<g>
		<polygon style="fill:#FFFFFF;" points="0,375.467 0,264.534 0,230.4 17.067,230.4 17.067,264.534 17.067,375.467   " data-original="#FFFFFF"/>
		<g>
			<path style="fill:#2C88D9" d="M5.292,315.054c0.484,0.246,1.002,0.417,1.537,0.508c0.563,0.096,1.133,0.153,1.704,0.171     c2.259-0.031,4.423-0.915,6.059-2.475c3.221-3.397,3.221-8.72,0-12.117c-0.815-0.771-1.77-1.379-2.813-1.792     c-1.027-0.438-2.13-0.67-3.246-0.683c-2.259,0.034-4.422,0.918-6.059,2.475c-3.3,3.365-3.3,8.752,0,12.117l1.279,1.025     C4.23,314.607,4.747,314.866,5.292,315.054z" data-original="#428DFF" class="active-path" data-old_color="#428DFF"/>
			<path style="fill:#2C88D9" d="M401.067,0h-179.2C91.234,0,0,94.746,0,230.4v42.667c0,4.713,3.821,8.533,8.533,8.533     s8.533-3.821,8.533-8.533V230.4c0-106.188,63.325-213.333,204.8-213.333h179.2c80.825,0,93.867,10.063,93.867,34.133     c0,21.037-24.342,34.437-52.525,49.954c-20.308,9.963-39.126,22.713-55.908,37.879c-22.35,22.35-33.583,49.737-43.5,73.9     c-7.767,18.925-14.475,35.271-24.767,45.567c-3.575,3.575-7.15,7.471-10.883,11.537l-0.15,0.167v-22.737     c-0.573-29.633,1.3-59.263,5.6-88.588c5.292-31.05,14.4-54.512,26.033-67.512c10.155-8.953,23.103-14.102,36.633-14.567     c0.269-0.04,0.535-0.094,0.798-0.161c1.326,10.465,7.527,19.685,16.719,24.861c4.214,2.094,9.328,0.383,11.432-3.826     c2.104-4.209,0.405-9.327-3.798-11.441c-5.672-4.146-8.743-10.972-8.083-17.967c-0.66-6.995,2.411-13.821,8.083-17.967     c4.204-2.114,5.903-7.232,3.798-11.441c-2.104-4.209-7.218-5.92-11.432-3.826c-9.192,5.175-15.393,14.396-16.719,24.861     c-0.263-0.067-0.529-0.121-0.798-0.161c-18.21,0.492-35.626,7.563-49.025,19.904c-17.817,19.888-26.4,52.508-30.325,75.713     c-5.675,22.421-13.125,36.129-22.133,40.742c-8.867,4.542-19.758,0.246-31.275-4.313l-2.403-0.947     c-23.46-13.566-60.213-20.165-112.306-20.165c-0.269,0.04-0.535,0.094-0.798,0.161c-1.326-10.465-7.527-19.686-16.719-24.861     c-2.728-1.372-5.982-1.182-8.532,0.498s-4.007,4.596-3.822,7.644c0.185,3.048,1.985,5.765,4.72,7.124     c5.672,4.146,8.743,10.972,8.083,17.967c0.66,6.995-2.411,13.821-8.083,17.967c-4.204,2.114-5.903,7.232-3.799,11.441     c2.104,4.209,7.218,5.92,11.432,3.826c9.192-5.176,15.392-14.396,16.719-24.861c0.263,0.067,0.529,0.121,0.798,0.161     c49.417,0,83.517,5.938,104.25,18.158c15.349,8.039,24.621,24.27,23.75,41.575v63.642c-9.32,4.21-19.089,7.345-29.118,9.345     c-1.576,0.33-3.18,0.625-4.786,0.911c-4.138,0.729-8.4,1.318-12.785,1.766c-1.554,0.159-3.124,0.301-4.71,0.424     c-5.451,0.417-11.013,0.712-16.867,0.712c-3.503-0.005-7.003,0.218-10.477,0.666c-50.388,6.574-71.369,60.535-88.439,104.434     c-1.898,4.867-3.764,9.671-5.637,14.345c-11.199,27.867-22.819,51.222-40.513,51.222c-25.6,0-25.6-77.717-25.6-119.467v-0.001     v-34.133c0-4.713-3.821-8.533-8.533-8.533S0,336.62,0,341.333v34.133v0.001C0,433.088,0,512,42.667,512     c23.425,0,37.442-19.509,49.205-45.183c10.562,15.051,29.094,28.116,61.729,28.116c27.925,0,47.492-6.233,59.808-19.063     c17.783-18.508,16.658-46.512,15.567-73.6c-0.922-23.035-1.645-44.914,8.028-60.615c7.91,1.078,18.997,6.309,18.997,33.81V486.4     c0,14.138,11.461,25.6,25.6,25.6s25.6-11.462,25.6-25.6V294.975c4.535-4.548,8.74-9.047,12.733-13.399     c3.558-3.883,6.967-7.6,10.367-11.008c12.717-12.717,20.375-31.387,28.492-51.154c9.3-22.679,19.85-48.383,39.775-68.313     c15.684-13.982,33.204-25.756,52.075-34.996C482.192,98.733,512,82.325,512,51.2C512,7.663,476.225,0,401.067,0z      M211.926,402.959c0.983,24.596,1.917,47.825-10.825,61.092c-8.934,9.296-24.467,13.817-47.5,13.817     c-27.125,0-44.608-10.125-53.333-30.929l0.113-0.289c1.451-3.66,2.899-7.354,4.345-11.082     c18.008-46.329,36.633-94.233,83.008-94.233c4.956,0,9.74-0.19,14.444-0.468c1.157-0.069,2.302-0.16,3.444-0.247     c4.139-0.31,8.185-0.729,12.139-1.258c0.344-0.047,0.714-0.06,1.057-0.109C210.134,358.425,211.075,381.729,211.926,402.959z      M253.976,330.373c0.679-0.258,1.353-0.523,2.025-0.791v2.024C255.368,331.14,254.641,330.796,253.976,330.373L253.976,330.373z      M290.134,486.4c0,4.713-3.821,8.533-8.533,8.533c-4.713,0-8.533-3.82-8.533-8.533V247.467c0.23-11.297-2.487-22.46-7.883-32.388     l0.277-0.015l0.173,0.015c5.605,0.051,11.139-1.251,16.133-3.796c1.698-0.878,3.324-1.891,4.86-3.029     c0.499-0.368,0.963-0.835,1.452-1.233c0.969-0.788,1.951-1.54,2.88-2.446c-0.825,16.709-0.825,31.754-0.825,42.892V486.4z" data-original="#428DFF" class="active-path" data-old_color="#428DFF"/>
		</g>
	</g>
</g></g> </svg>
