<?xml version="1.0"?>
<svg xmlns="http://www.w3.org/2000/svg" id="Capa_1" enable-background="new 0 0 512.01 512.01" height="512px" viewBox="0 0 512.01 512.01" width="512px"><g><g><path d="m40.005 512.005c5.795 0 11.6-1.281 16.845-3.71 12.477-3.769 143.091-44.594 168.452-108.607 16.209-40.924 5.385-94.499-7.548-134.253l17.042-17.039c11.694-11.695 30.724-11.694 42.42.001l17.04 17.037c-12.933 39.754-23.757 93.329-7.548 134.254 25.361 64.012 155.976 104.837 168.452 108.606 5.245 2.43 11.05 3.71 16.845 3.71 23.271 0 41.329-19.8 39.929-42.307-.475-12.971-2.366-58.512-7.104-109.873-.508-5.5-5.373-9.551-10.877-9.039-5.499.507-9.546 5.377-9.039 10.876 5.753 62.353 6.771 105.418 7.056 109.22.741 11.167-8.321 21.123-19.964 21.123-5.622 0-8.398-2.064-10.4-2.658-45.646-13.537-138.47-52.018-156.303-97.024-13.206-33.343-4.367-79.233 4.944-110.901l18.688 18.684c3.906 3.905 10.236 3.905 14.143 0 3.905-3.905 3.905-10.237 0-14.143l-51.72-51.71c-19.493-19.491-51.21-19.494-70.701-.001l-51.722 51.711c-3.905 3.905-3.905 10.237 0 14.143 3.906 3.905 10.236 3.905 14.143 0l18.688-18.684c9.312 31.667 18.151 77.557 4.944 110.899-9.089 22.94-38.612 46.896-85.379 69.279-36.492 17.466-70.583 27.646-70.924 27.746-2.004.595-4.784 2.658-10.4 2.658-10.702 0-20.429-8.556-19.947-21.436.8-21.959 8.677-216.085 38.673-269.68 29.561-52.809 113.551-94.884 137.274-94.884 16.542 0 30 13.458 30 30v15.61c0 13.36-5.2 25.917-14.642 35.359l-19.033 19.031h-39.245c-35.76 0-55.643 24.759-66.024 45.529-2.47 4.94-.467 10.946 4.473 13.416 4.951 2.474 10.951.457 13.416-4.474 17.231-34.471 40.492-34.471 48.136-34.471h19.243l-40.054 40.049c-16.84 16.839-26.325 40.154-26.269 63.962v61.855l-37.071 37.063c-3.905 3.905-3.905 10.237 0 14.143 3.906 3.905 10.236 3.905 14.143 0l32.929-32.929 12.929 12.929c3.906 3.905 10.236 3.905 14.143 0 3.905-3.905 3.905-10.237 0-14.143l-17.08-17.08-.067-31.782 23.005 23.005c3.906 3.905 10.236 3.905 14.143 0 3.905-3.905 3.905-10.237 0-14.143l-37.207-37.207-.004-1.755c-.044-18.528 7.446-36.671 20.55-49.774l79.091-79.081c13.219-13.219 20.499-30.799 20.499-49.501v-131.609h20v131.61c0 18.702 7.28 36.282 20.499 49.501l78.998 78.988c13.222 13.23 20.503 30.811 20.503 49.501v2.257l-37.071 37.071c-3.905 3.905-3.905 10.237 0 14.143 3.906 3.905 10.236 3.905 14.143 0l22.929-22.929v31.715l-17.071 17.071c-3.905 3.905-3.905 10.237 0 14.143 3.906 3.905 10.236 3.905 14.143 0l12.929-12.929 32.929 32.929c3.906 3.905 10.236 3.905 14.143 0 3.905-3.905 3.905-10.237 0-14.143l-37.071-37.071c0-11.198 0-55.019 0-62.257 0-24.031-9.36-46.631-26.359-63.642l-39.963-39.958h19.242c7.644 0 30.904 0 48.136 34.471 2.47 4.941 8.476 6.942 13.416 4.474 4.939-2.47 6.942-8.476 4.473-13.416-10.382-20.77-30.265-45.529-66.024-45.529h-39.255l-19.033-19.031c-9.441-9.442-14.642-22-14.642-35.359v-15.61c0-16.542 13.458-30 30-30 27.982 0 109.902 45.992 137.273 94.884 7.595 13.568 14.472 37.888 20.439 72.284.94 5.415 6.09 9.089 11.563 8.144 5.441-.944 9.087-6.121 8.143-11.563-6.445-37.146-13.867-62.867-22.692-78.634-31.164-55.665-119.907-105.115-154.726-105.115-11.248 0-21.637 3.735-30 10.027v-86.027c0-5.523-4.478-10-10-10h-40c-5.522 0-10 4.477-10 10v86.027c-8.363-6.292-18.753-10.027-30-10.027-34.87 0-123.563 49.444-154.727 105.116-31.578 56.423-39.852 241.613-41.202 278.578-1.401 22.516 16.671 42.306 39.929 42.306z" data-original="#000000" class="active-path" data-old_color="#000000" fill="#2C88D9"/><circle cx="490.005" cy="316.005" r="10" data-original="#000000" class="active-path" data-old_color="#000000" fill="#2C88D9"/></g></g> </svg>
