<?xml version="1.0"?>
<svg xmlns="http://www.w3.org/2000/svg" id="Layer_1" enable-background="new 0 0 512.005 512.005" height="512px" viewBox="0 0 512.005 512.005" width="512px"><g><g><path d="m345.864 371.405c-5.793-4.533-13.93-4.533-19.723 0-5.022 3.931-49.072 39.619-49.072 81.667 0 32.496 26.438 58.933 58.934 58.933s58.934-26.438 58.934-58.933c-.001-42.048-44.051-77.736-49.073-81.667zm-9.861 108.6c-14.852 0-26.934-12.082-26.934-26.933 0-16.991 15.105-35.88 26.919-47.599 11.682 11.644 26.948 30.691 26.948 47.599 0 14.851-12.082 26.933-26.933 26.933z" data-original="#000000" class="active-path" data-old_color="#000000" fill="#2C88D9"/><path d="m424.987 189.185c-28.116-46.484-60.295-122.242-73.555-176.949-2.08-8.587-10.731-13.861-19.318-11.781-8.588 2.082-13.862 10.731-11.781 19.319 13.972 57.647 46.925 135.772 77.273 185.972 13.656 22.579 34.294 56.7 34.396 82.321.053 13.564-12.132 26.959-24.232 34.218-24.528 14.716-49.311 5.945-59.029 1.375 9.846-12.951 18.35-19.655 35.261-19.655 8.837 0 16-7.164 16-16s-7.163-16-16-16c-38.585 0-55.348 24.138-68.816 43.534-14.148 20.374-25.323 36.466-59.184 36.466s-45.035-16.092-59.184-36.466c-13.469-19.396-30.231-43.534-68.816-43.534-8.837 0-16 7.164-16 16s7.163 16 16 16c16.912 0 25.416 6.705 35.262 19.656-9.701 4.554-34.518 13.331-59.032-1.377-12.099-7.258-24.283-20.653-24.23-34.215.103-25.624 20.74-59.745 34.396-82.323 30.368-50.231 63.29-128.28 77.273-185.972 2.081-8.588-3.193-17.237-11.781-19.319-8.588-2.086-17.237 3.194-19.318 11.781-13.262 54.718-45.447 130.477-73.555 176.949-15.481 25.596-38.877 64.277-39.016 98.758-.141 36.709 38.757 74.518 85.451 74.518 23.742 0 42.6-9.175 48.86-12.63 14.42 17.753 34.832 34.174 73.689 34.174 38.856 0 59.269-16.422 73.689-34.174 6.26 3.456 25.115 12.632 48.861 12.631 46.614-.005 85.592-37.684 85.45-74.521-.137-34.479-23.533-73.16-39.014-98.756z" data-original="#000000" class="active-path" data-old_color="#000000" fill="#2C88D9"/></g></g> </svg>
