<?xml version="1.0"?>
<svg xmlns="http://www.w3.org/2000/svg" id="Layer_3" enable-background="new 0 0 64 64" height="512px" viewBox="0 0 64 64" width="512px"><g><path d="m45 25h-4v-3c0-2.757-2.243-5-5-5h-1.54c.519-.578.926-1.254 1.19-2h1.35c1.654 0 3-1.346 3-3 0-1.302-.839-2.402-2-2.816v-3.184c0-2.757-2.243-5-5-5h-6c-2.757 0-5 2.243-5 5v3.184c-1.161.414-2 1.514-2 2.816 0 1.654 1.346 3 3 3h1.35c.265.746.672 1.422 1.19 2h-1.54c-2.757 0-5 2.243-5 5v17c0 .553.448 1 1 1h3v17.184c-1.161.414-2 1.514-2 2.816v2c0 .553.448 1 1 1h8c.552 0 1-.447 1-1v-12.556c.591.344 1.268.556 2 .556 2.206 0 4-1.794 4-4v15h-2v2h6v-2h-2v-16.586l4.707-4.707c.188-.187.293-.441.293-.707v-12h1zm-13-6c0 1.103-.897 2-2 2s-2-.897-2-2zm5-6h-1v-2h1c.551 0 1 .448 1 1s-.449 1-1 1zm-13-7c0-1.654 1.346-3 3-3h6c1.654 0 3 1.346 3 3v2.829c-1.164-.413-2-1.525-2-2.829 0-.553-.448-1-1-1s-1 .447-1 1c0 1.391-3.026 3-5 3h-3zm-1 7c-.551 0-1-.448-1-1s.449-1 1-1h1v2zm3 0v-2h1c1.612 0 4.21-.876 5.747-2.374.329.531.755.996 1.253 1.371v3.003c0 2.206-1.794 4-4 4s-4-1.794-4-4zm-2 6h2c0 2.206 1.794 4 4 4s4-1.794 4-4h2c1.654 0 3 1.346 3 3v12h-2v-11h-2v2h-4v2h1v7h-7v-11h-2v11h-2v-12c0-1.654 1.346-3 3-3zm5 21v2h-4v-6h7v3c0 .266.105.52.293.707l2.293 2.293h-3.586v-2zm5-1.414v-2.586h1v3.586zm1-11.586v7h-1v-7zm2 9h2v2h-2zm-16 2v-2h2v2zm8 23h-6v-1c0-.552.449-1 1-1h5zm0-4h-4v-13h4zm4-9c-1.103 0-2-.897-2-2v-2h4v2c0 1.103-.897 2-2 2zm5-5.414-1-1v-1.586h3c.552 0 1-.447 1-1v-3h1v2.586zm4-8.586h-1v-7h1z" data-original="#000000" class="active-path" data-old_color="#000000" fill="#2C88D9"/></g> </svg>
