<?xml version="1.0"?>
<svg xmlns="http://www.w3.org/2000/svg" id="Capa_1" enable-background="new 0 0 512 512" height="512px" viewBox="0 0 512 512" width="512px"><g><g><path d="m504.5 497h-37.889v-95.329h6.506c14.846 0 26.923-12.077 26.923-26.922 0-14.846-12.077-26.923-26.923-26.923h-16.146v-4.108c0-15.622-12.709-28.332-28.331-28.332h-56.033c-4.143 0-7.5 3.357-7.5 7.5s3.357 7.5 7.5 7.5h56.033c7.351 0 13.331 5.98 13.331 13.332v4.108h-165.108c3.095-5.211 4.914-11.174 5.204-17.44h60.555c4.143 0 7.5-3.357 7.5-7.5s-3.357-7.5-7.5-7.5h-62.91c-5.369-14.211-19.108-24.347-35.175-24.347-2.14 0-4.276.194-6.382.558v-1.151c0-4.143-3.357-7.5-7.5-7.5h-12.292c-11.644 0-21.116 9.473-21.116 21.115v43.765h-8.066l-10.403-97.062c8.639-.104 15.638-7.156 15.638-15.819v-36.14c0-8.729-7.102-15.829-15.83-15.829h-7.073l-3.121-29.12c-.417-3.895.795-7.645 3.413-10.558 2.618-2.915 6.218-4.52 10.135-4.52h110.847v27.24c0 8.067 6.562 14.63 14.63 14.63h8.743l9.29 21.279c2.033 4.658 6.084 8.186 11.096 9.948l-20.093 76.669c-1.05 4.007 1.347 8.106 5.354 9.156 4.005 1.049 8.106-1.347 9.156-5.354l20.763-79.221h18.924l20.763 79.221c.883 3.369 3.923 5.601 7.25 5.601.629 0 1.269-.08 1.906-.247 4.007-1.05 6.403-5.149 5.354-9.156l-20.093-76.669c5.011-1.763 9.063-5.29 11.096-9.947l9.291-21.28h8.743c8.067 0 14.63-6.562 14.63-14.63v-27.24h6.656c16.745 0 30.368-13.623 30.368-30.368v-47.424h3.852c4.143 0 7.5-3.357 7.5-7.5s-3.357-7.5-7.5-7.5h-3.852v-15.618c-.003-16.745-13.626-30.368-30.371-30.368h-39.364c-4.143 0-7.5 3.357-7.5 7.5s3.357 7.5 7.5 7.5h39.364c8.474 0 15.368 6.895 15.368 15.368v15.618h-411.815v-15.618c0-8.473 6.893-15.368 15.367-15.368h311.729c4.143 0 7.5-3.357 7.5-7.5s-3.357-7.5-7.5-7.5h-311.729c-16.744 0-30.367 13.623-30.367 30.368v15.618h-5.335c-4.143 0-7.5 3.357-7.5 7.5s3.357 7.5 7.5 7.5h5.335v122.282c-7.3 1.405-12.835 7.832-12.835 15.536v36.14c0 7.704 5.535 14.132 12.835 15.536v246.52h-17.296c-4.143 0-7.5 3.357-7.5 7.5s3.357 7.5 7.5 7.5h497c4.143 0 7.5-3.357 7.5-7.5s-3.357-7.5-7.5-7.5zm-52.889 0h-246.444l-10.217-95.329h256.661zm-207.075-190.961c12.457 0 22.591 10.134 22.591 22.591 0 7.879-4.057 15.085-10.692 19.196h-18.281v-40.867c2.055-.607 4.189-.92 6.382-.92zm-32.29-1.977c0-3.372 2.744-6.115 6.116-6.115h4.792v49.88h-10.908zm260.871 58.764c6.574 0 11.923 5.349 11.923 11.923 0 6.573-5.349 11.922-11.923 11.922-16.52 0-269.603 0-279.774 0l-2.556-23.845zm-89.939-166.899c-.473 1.081-2.391 2.2-4.782 2.2-24.811 0-19.752 0-34.418 0-2.392 0-4.309-1.118-4.781-2.2l-6.67-15.278h57.321zm31.409-30.279c-27.768 0-97.066 0-106.801 0v-26.87h106.801zm37.024-104.662v47.424c0 8.474-6.895 15.368-15.368 15.368-5.801 0-251.874 0-254.304 0-8.11 0-15.872 3.46-21.293 9.494-5.421 6.033-8.034 14.118-7.169 22.182l2.949 27.521h-116.63v-121.989zm-411.815 436.014v-246.227h24.328c4.143 0 7.5-3.357 7.5-7.5s-3.357-7.5-7.5-7.5h-36.334c-.457 0-.829-.372-.829-.829v-36.14c0-.457.372-.829.829-.829h136.954c.007 0 .014.001.021.001.006 0 .012-.001.018-.001h13.802c.458 0 .83.372.83.829v36.14c0 .457-.372.829-.83.829h-8.184c-.001 0-.001 0-.002 0h-76.289c-4.143 0-7.5 3.357-7.5 7.5s3.357 7.5 7.5 7.5h69.583c.602 5.621 22.252 207.62 26.389 246.227z" data-original="#000000" class="active-path" data-old_color="#000000" fill="#2C88D9"/><path d="m224.292 106.954c4.143 0 7.5-3.357 7.5-7.5v-14.011c0-4.143-3.357-7.5-7.5-7.5s-7.5 3.357-7.5 7.5v14.011c0 4.143 3.357 7.5 7.5 7.5z" data-original="#000000" class="active-path" data-old_color="#000000" fill="#2C88D9"/><path d="m260.481 106.954c4.143 0 7.5-3.357 7.5-7.5v-14.011c0-4.143-3.357-7.5-7.5-7.5s-7.5 3.357-7.5 7.5v14.011c0 4.143 3.358 7.5 7.5 7.5z" data-original="#000000" class="active-path" data-old_color="#000000" fill="#2C88D9"/><path d="m296.67 106.954c4.143 0 7.5-3.357 7.5-7.5v-14.011c0-4.143-3.357-7.5-7.5-7.5s-7.5 3.357-7.5 7.5v14.011c0 4.143 3.357 7.5 7.5 7.5z" data-original="#000000" class="active-path" data-old_color="#000000" fill="#2C88D9"/><path d="m224.292 449.809h21.411c4.143 0 7.5-3.357 7.5-7.5s-3.357-7.5-7.5-7.5h-21.411c-4.143 0-7.5 3.357-7.5 7.5s3.357 7.5 7.5 7.5z" data-original="#000000" class="active-path" data-old_color="#000000" fill="#2C88D9"/><path d="m274.627 449.809h21.411c4.143 0 7.5-3.357 7.5-7.5s-3.357-7.5-7.5-7.5h-21.411c-4.143 0-7.5 3.357-7.5 7.5s3.357 7.5 7.5 7.5z" data-original="#000000" class="active-path" data-old_color="#000000" fill="#2C88D9"/><path d="m324.962 449.809h21.411c4.143 0 7.5-3.357 7.5-7.5s-3.357-7.5-7.5-7.5h-21.411c-4.143 0-7.5 3.357-7.5 7.5s3.357 7.5 7.5 7.5z" data-original="#000000" class="active-path" data-old_color="#000000" fill="#2C88D9"/><path d="m379.547 463.951c4.143 0 7.5-3.357 7.5-7.5v-14.143c0-4.143-3.357-7.5-7.5-7.5s-7.5 3.357-7.5 7.5v14.143c0 4.143 3.357 7.5 7.5 7.5z" data-original="#000000" class="active-path" data-old_color="#000000" fill="#2C88D9"/><path d="m405.125 463.951c4.143 0 7.5-3.357 7.5-7.5v-14.143c0-4.143-3.357-7.5-7.5-7.5s-7.5 3.357-7.5 7.5v14.143c0 4.143 3.357 7.5 7.5 7.5z" data-original="#000000" class="active-path" data-old_color="#000000" fill="#2C88D9"/><path d="m430.703 463.951c4.143 0 7.5-3.357 7.5-7.5v-14.143c0-4.143-3.357-7.5-7.5-7.5s-7.5 3.357-7.5 7.5v14.143c0 4.143 3.358 7.5 7.5 7.5z" data-original="#000000" class="active-path" data-old_color="#000000" fill="#2C88D9"/></g></g> </svg>
