<svg id="Capa_1" enable-background="new 0 0 512.369 512.369" height="512" viewBox="0 0 512.369 512.369" width="512" xmlns="http://www.w3.org/2000/svg"><g><path d="m512.185 303.917c0-38.8-31.329-70.366-69.836-70.366s-69.836 31.566-69.836 70.366c0 33.797 23.773 62.097 55.353 68.836v59.4c0 27.689-29.653 50.217-66.102 50.217h-118.69c-36.449 0-66.102-22.527-66.102-50.217v-80.614c11.841-5.59 20.037-17.634 20.037-31.597v-29.391h13.297c62.679 0 113.671-50.993 113.671-113.672v-134.074c0-8.284-6.716-15-15-15h-40.047v-13.816c0-7.726-6.263-13.989-13.989-13.989h-27.994c-23.554 0-42.717 19.163-42.717 42.717s19.163 42.718 42.717 42.718h27.994c7.726 0 13.989-6.263 13.989-13.989v-13.641h25.045v119.074c0 46.137-37.535 83.672-83.671 83.672h-96.448c-46.137 0-83.671-37.535-83.671-83.672v-119.074h29.045v13.642c0 7.726 6.263 13.989 13.989 13.989h27.994c23.554 0 42.717-19.164 42.717-42.718 0-23.555-19.163-42.718-42.717-42.718h-27.995c-7.726 0-13.989 6.263-13.989 13.989v13.816h-44.044c-8.284 0-15 6.716-15 15v134.074c0 62.679 50.993 113.672 113.671 113.672h13.297v29.391c0 13.877 8.094 25.863 19.817 31.498v80.713c0 22.055 10.425 42.583 29.355 57.805 17.973 14.453 41.678 22.412 66.748 22.412h118.69c25.07 0 48.775-7.959 66.748-22.412 18.93-15.222 29.354-35.75 29.354-57.805v-59.641c31.061-7.132 54.32-35.169 54.32-68.595zm-79.351-11.598c4.87-3.966 11.822-4.478 17.217-1.266 5.365 3.194 8.258 9.669 7.002 15.796-1.418 6.921-7.617 12.07-14.71 12.07-6.256 0-12.016-4.061-14.11-9.952-2.091-5.886-.264-12.685 4.601-16.648z"/></g></svg>