<?xml version="1.0"?>
<svg xmlns="http://www.w3.org/2000/svg" id="Layer_1" enable-background="new 0 0 511.936 511.936" height="512px" viewBox="0 0 511.936 511.936" width="512px"><g><path d="m507.512 434.616c-5.859-5.858-15.355-5.858-21.213 0l-15.251 15.25-14.884-14.884 13.458-13.458c5.858-5.857 5.858-15.355 0-21.213l-31.654-31.655v-149.688c0-58.261-22.839-113.186-64.309-154.656-41.471-41.472-96.397-64.312-154.659-64.312-58.264 0-113.189 22.839-154.66 64.309-41.47 41.47-64.309 96.396-64.309 154.659v150.742c0 8.284 6.716 15 15 15h95.163c28.369 28.304 67.427 45.821 110.486 45.821 37.888 0 73.723-13.503 102.218-38.26l77.383 77.383c2.813 2.813 6.628 4.394 10.606 4.394 3.979 0 7.793-1.58 10.606-4.394l13.458-13.458 14.883 14.883-15.25 15.25c-5.858 5.857-5.858 15.355 0 21.213 2.93 2.93 6.768 4.394 10.607 4.394 3.838 0 7.678-1.465 10.606-4.394l51.714-51.713c5.858-5.857 5.858-15.355.001-21.213zm-172.113-72.269 6.729-20.188 20.188-6.729 17.131 17.131-26.917 26.917zm-305.368-143.379c0-104.197 84.771-188.968 188.969-188.968s188.969 84.771 188.969 188.968v119.689l-30.995-30.995c-.86-.86-1.813-1.593-2.825-2.207 2.232-10.615 3.361-21.457 3.361-32.389v-104.858c0-5.199-2.692-10.027-7.115-12.76-4.422-2.734-9.945-2.981-14.595-.655l-2.423 1.217c-12.208 6.146-17.262 8.69-39.688 8.69-33.787 0-61.93-25.561-75.455-37.845-7.023-6.378-10.892-9.892-17.601-9.892-6.542 0-10.114 3.272-16.598 9.213-12.583 11.527-42.052 38.523-76.366 38.523-22.425 0-27.479-2.544-39.687-8.69l-2.424-1.217c-4.651-2.327-10.172-2.077-14.595.655s-7.115 7.561-7.115 12.76v104.858c0 29.869 8.327 57.823 22.771 81.644h-56.588zm63.818 54.098v-82.059c8.325 2.442 18.189 3.692 33.821 3.692 42.717 0 76.385-28.068 93.102-43.186 16.295 14.678 50.075 43.186 92.918 43.186 15.631 0 25.495-1.25 33.82-3.692v82.059c0 12.794-1.914 25.428-5.67 37.566l-7.519 2.506-34.354-34.355c-5.858-5.858-15.355-5.858-21.213 0-5.858 5.857-5.858 15.355 0 21.213l34.354 34.355-9.101 27.303c-.843 2.529-.973 5.178-.467 7.695-23.09 20.176-52.152 31.181-82.86 31.181-69.935.001-126.831-57.179-126.831-127.464zm279.894 127.625 26.917-26.917 37.144 37.144-26.917 26.917z" data-original="#000000" class="active-path" data-old_color="#000000" fill="#2C88D9"/></g> </svg>
