<?xml version="1.0"?>
<svg xmlns="http://www.w3.org/2000/svg" id="Capa_1" enable-background="new 0 0 512 512" height="512px" viewBox="0 0 512 512" width="512px" class=""><g><g><path d="m166 512h210c8.284 0 15-6.716 15-15v-84.026c19.394-21.572 30-49.171 30-78.4v-229.58c0-24.81-20.185-44.994-44.994-44.994-5.858 0-11.453 1.137-16.591 3.182-5.204-19.097-22.693-33.182-43.421-33.182-5.854 0-11.445 1.136-16.58 3.179-5.204-19.095-22.693-33.179-43.42-33.179-20.722 0-38.207 14.085-43.41 33.182-5.137-2.045-10.732-3.182-16.59-3.182-24.809 0-44.994 20.184-44.994 44.994v122.047c-12.544-9.438-28.129-15.041-45-15.041-8.284 0-15 6.716-15 15v112.918c0 43.445 22.82 83.658 60 105.949v81.133c0 8.284 6.716 15 15 15zm-45-202.082v-95.348c17.461 6.191 30 22.873 30 42.429v30c0 8.284 6.716 15 15 15s15-6.716 15-15c0-10.768 0-200.92 0-212.006 0-8.267 6.727-14.993 14.994-14.993 8.275 0 15.006 6.726 15.006 14.994v152.006c0 8.284 6.716 15 15 15s15-6.716 15-15v-182.006c0-8.268 6.727-14.994 14.994-14.994 8.275 0 15.006 6.726 15.006 14.994v182.006c0 8.284 6.716 15 15 15s15-6.716 15-15v-152.006c0-8.268 6.727-14.994 14.994-14.994 8.275 0 15.006 6.726 15.006 14.994v152.006c0 8.284 6.716 15 15 15s15-6.716 15-15v-122.006c0-8.268 6.731-14.994 15.006-14.994 8.267 0 14.994 6.726 14.994 14.994v229.58c0 23.353-9.094 45.307-25.606 61.82-2.814 2.812-4.394 6.628-4.394 10.606v75h-180s0-75.066 0-75.068c-.026-5.88-3.454-11.053-8.562-13.484-31.737-15.992-51.438-47.97-51.438-83.53z" data-original="#000000" class="active-path" data-old_color="#000000" fill="#2C88D9"/><circle cx="286" cy="287" r="15" data-original="#000000" class="active-path" data-old_color="#000000" fill="#2C88D9"/><circle cx="226" cy="287" r="15" data-original="#000000" class="active-path" data-old_color="#000000" fill="#2C88D9"/><circle cx="346" cy="287" r="15" data-original="#000000" class="active-path" data-old_color="#000000" fill="#2C88D9"/><circle cx="316" cy="347" r="15" data-original="#000000" class="active-path" data-old_color="#000000" fill="#2C88D9"/><circle cx="256" cy="347" r="15" data-original="#000000" class="active-path" data-old_color="#000000" fill="#2C88D9"/><circle cx="286" cy="407" r="15" data-original="#000000" class="active-path" data-old_color="#000000" fill="#2C88D9"/></g></g> </svg>
