<?xml version="1.0"?>
<svg xmlns="http://www.w3.org/2000/svg" xmlns:xlink="http://www.w3.org/1999/xlink" version="1.1" id="Layer_1" x="0px" y="0px" viewBox="0 0 512 512" style="enable-background:new 0 0 512 512;" xml:space="preserve" width="512px" height="512px"><g><g>
	<g>
		<path d="M328.245,145.656l33.781-32.859c0,0,33.781-22.594,13.562-48.023c-11.922-14.977-28.531-33.344-44.125-33.344    c-2.359,0-4.688,0.414-6.969,1.32c-7.422,2.969-14.562,6.125-21.406,9.414l1.25-8.57c1.812-5.984-15.328-17.227-39.094-25.5    C250.12,2.828,235.854,0,226.495,0c-5.742,0-9.641,1.07-10.758,3.297c-0.086,0.18-0.164,0.375-0.211,0.57l-0.023-0.008    l-23.188,114.422l-2.281-44.977l-0.023,0.008c-0.023-0.234-0.062-0.469-0.125-0.703c-1.07-4.047-7.828-6.141-17.57-6.141    c-7.688,0-17.234,1.297-27.32,3.969c-22.273,5.875-38.969,16.234-38.07,23.469l0.297,38.344c-3.258-1.328-6.234-2.094-8.781-2.094    c-3.781,0-6.602,1.688-7.93,5.742C-4.942,425.906,206.628,512,338.667,512c30.031,0,55.953-4.453,73.203-11.969    C470.886,474.297,457.589,210.359,328.245,145.656z M233.604,21.953c6.172,0.891,14.703,2.836,24.625,6.297    c11.266,3.914,19.203,7.977,23.766,10.828l-2.25,15.484c-25.156,14.648-45.734,31.023-62.242,46.852L233.604,21.953z     M150.441,91.062c6.75-1.781,13.367-2.891,18.969-3.18l3.406,67.039c-7.578,11.641-11.023,19-11.023,19s-16.133-16-33.141-28.656    L128.3,99.914C132.245,97.476,139.784,93.875,150.441,91.062z M415.62,460.562c-4.344,12.625-9.328,18.625-12.281,19.906    c-14.875,6.484-38.438,10.203-64.672,10.203c-38.547,0-79.297-7.781-114.719-21.906c-20.094-8.016-38.445-18.016-54.531-29.734    c-17.43-12.688-32.32-27.469-44.25-43.969c-20.398-28.188-32.57-61.906-36.156-100.219c-3.844-40.961,2.055-87.633,17.539-138.906    c0.469,0.289,0.953,0.602,1.461,0.93c5.094,3.281,11,7.695,17.547,13.109c11.641,9.633,21.117,19,21.211,19.094l21.586,21.594    L181.097,183c0.453-0.938,11.031-22.5,34.578-48.969c13.969-15.711,29.727-30.07,46.852-42.68    c21.125-15.57,44.406-28.531,69.219-38.523c1,0.266,4.219,1.422,9.984,6.469c6.562,5.734,12.922,13.453,17.156,18.758    c2.016,2.523,1.844,3.625,1.781,4.039c-0.594,4.055-6.578,10.227-10.547,13l-1.438,0.93l-1.531,1.477l-33.781,32.867    l-21.531,20.938c-3.984,4.672-8.094,10.031-12.047,16.102c-16,24.492-32.75,65.656-21.734,122.656    c0.938,4.906,5.281,8.641,10.469,8.641c5.906,0,10.672-4.781,10.672-10.672c0-0.688-0.078-1.375-0.203-2.031    c0-0.031,0-0.062-0.016-0.109c-7.641-39.727-1.547-75.406,18.172-106.039c4.766-7.414,9.812-13.625,14.453-18.664l7.094,3.547    c42.484,21.25,67.391,66.484,80.828,100.688c16.781,42.75,25.719,93.656,24.5,139.672    C423.433,427.047,420.542,446.219,415.62,460.562z" data-original="#000000" class="active-path" data-old_color="#000000" fill="#2C88D9"/>
	</g>
</g></g> </svg>
