<?xml version="1.0"?>
<svg xmlns="http://www.w3.org/2000/svg" xmlns:xlink="http://www.w3.org/1999/xlink" version="1.1" id="Capa_1" x="0px" y="0px" viewBox="0 0 512 512" style="enable-background:new 0 0 512 512;" xml:space="preserve" width="512px" height="512px"><g><g>
	<g>
		<g>
			<path d="M98.219,103.658c-14.539-0.024-26.344,11.744-26.368,26.283c-0.023,14.539,11.744,26.344,26.283,26.368     s26.344-11.744,26.368-26.283C124.522,115.488,112.757,103.684,98.219,103.658z" data-original="#000000" class="active-path" data-old_color="#000000" fill="#2C88D9"/>
			<path d="M371.2,121.493c-63.147-2.645-156.587-18.261-156.587-43.264c1.026-6.102,4.059-11.688,8.619-15.872     c13.537,9.853,29.939,14.981,46.677,14.592c4.946,0.021,9.885-0.379,14.763-1.195c4.587-0.948,7.551-5.42,6.637-10.014     s-5.363-7.591-9.964-6.711c-0.341,0-28.672,5.291-48.725-10.923c5.255-14.966,20.053-24.408,35.84-22.869     c4.713,0,8.533-3.82,8.533-8.533s-3.82-8.533-8.533-8.533c-20.884-1.206-40.467,10.182-49.749,28.928     c-6.847-5.822-10.959-14.232-11.349-23.211c0-4.713-3.82-8.533-8.533-8.533s-8.533,3.821-8.533,8.533     c0.426,14.237,6.954,27.604,17.92,36.693c-12.279,7.85-26.335,12.487-40.875,13.483c-42.325,0-53.589-54.699-54.101-57.003     c-0.854-4.296-4.822-7.247-9.181-6.828c-4.359,0.418-7.694,4.07-7.715,8.45c0,12.459-15.36,23.125-33.195,35.584     C34.987,63.807,0,88.213,0,136.511c0,48.299,34.987,72.619,63.147,92.245c14.421,9.984,27.136,18.944,31.488,28.587     c-22.016,4.949-52.48,19.968-52.48,52.395c0,4.713,3.82,8.533,8.533,8.533s8.533-3.82,8.533-8.533     c0-22.016,22.613-31.317,36.352-34.901c-0.341,14.592,1.365,39.509,15.36,55.552c8.949,10.191,22.034,15.777,35.584,15.189     c4.713,0,8.533-3.821,8.533-8.533c0-4.713-3.82-8.533-8.533-8.533c-8.585,0.499-16.932-2.922-22.699-9.301     c-15.275-17.493-10.496-53.419-10.496-53.76v-0.341c0-0.085,0.085-0.256,0.085-0.341c0-0.512,3.584-52.139,35.328-52.139     c9.238,0.323,16.69,7.664,17.152,16.896c0.085,1.707,0.171,2.987,0.256,3.84c0.23,11.817-4.579,23.174-13.227,31.232     c-1.788,1.384-2.947,3.426-3.22,5.67c-0.273,2.244,0.365,4.505,1.769,6.276c1.623,2.079,4.104,3.304,6.741,3.328     c1.901,0.001,3.742-0.663,5.205-1.877c11.631-10.287,18.693-24.778,19.627-40.277c12.056-8.861,28.307-9.436,40.96-1.451     c4.027,2.394,9.231,1.086,11.648-2.927c2.417-4.013,1.14-9.225-2.859-11.665c-14.644-9.401-33.062-10.719-48.896-3.499     c2.324-11.482,7.654-22.142,15.445-30.891c19.285-22.187,64.683-48.725,171.52-48.725c74.24,0,124.075,36.864,124.075,91.819     c0,69.803-80.725,84.992-158.805,99.669c-73.472,13.824-149.419,28.075-149.76,91.904c0,0.023-0.008,0.045-0.024,0.061     s-0.038,0.025-0.061,0.024v0.939c-0.427,4.011-4.864,27.136-52.992,27.136c-41.387,0-60.075,31.061-60.075,53.163     c0,4.713,3.82,8.533,8.533,8.533s8.533-3.82,8.533-8.533c0.962-18.392,15.138-33.364,33.451-35.328     c-5.564,10.919-8.237,23.082-7.765,35.328c0,4.713,3.82,8.533,8.533,8.533s8.533-3.82,8.533-8.533     c0-33.536,16.64-36.949,17.664-37.12c0.256-0.085,0.427-0.171,0.683-0.256c9.82-1.119,19.343-4.072,28.075-8.704     c-1.365,3.67-2.901,7.168-4.437,10.496c-5.757,10.995-8.883,23.176-9.131,35.584c0,4.713,3.82,8.533,8.533,8.533     s8.533-3.82,8.533-8.533c0.248-9.966,2.851-19.733,7.595-28.501c3.381-7.168,6.205-14.585,8.448-22.187     c8.729,15.492,13.479,32.909,13.824,50.688c0,4.713,3.821,8.533,8.533,8.533s8.533-3.82,8.533-8.533     c-0.041-14.015-2.674-27.902-7.765-40.96c5.29,1.663,10.715,2.862,16.213,3.584c0.205,0.07,0.405,0.155,0.597,0.256     c0.768,0.085,17.749,3.328,17.749,37.12c0,4.713,3.82,8.533,8.533,8.533s8.533-3.82,8.533-8.533     c0.472-12.246-2.201-24.409-7.765-35.328c18.281,1.999,32.413,16.963,33.365,35.328c0,4.713,3.821,8.533,8.533,8.533     s8.533-3.82,8.533-8.533c0-22.101-18.603-53.163-59.989-53.163c-28.843,0-41.984-8.363-48.043-15.957     c-2.282-3.639-3.981-7.612-5.035-11.776c0-25.003,16.469-40.619,41.728-51.627s59.221-17.408,94.208-23.979     C420.267,331.583,512,314.346,512,230.378C512,165.354,455.424,121.578,371.2,121.493z M93.867,204.778     c-4.713,0-8.533-3.82-8.533-8.533s3.821-8.533,8.533-8.533c4.713,0,8.533,3.82,8.533,8.533     C102.386,200.952,98.574,204.764,93.867,204.778z M98.219,173.375c-17.558,0.017-33.396-10.549-40.123-26.767     c-6.727-16.218-3.017-34.892,9.398-47.308c12.416-12.416,31.09-16.125,47.308-9.398c16.218,6.727,26.784,22.565,26.767,40.123     C141.524,153.949,122.142,173.331,98.219,173.375z M153.6,179.178c-4.713,0-8.533-3.82-8.533-8.533s3.821-8.533,8.533-8.533     c4.713,0,8.533,3.82,8.533,8.533C162.119,175.352,158.307,179.164,153.6,179.178z M162.133,110.911     c-4.713,0-8.533-3.82-8.533-8.533s3.82-8.533,8.533-8.533s8.533,3.82,8.533,8.533     C170.653,107.085,166.84,110.897,162.133,110.911z M196.267,136.511c-4.713,0-8.533-3.82-8.533-8.533     c0-4.713,3.82-8.533,8.533-8.533s8.533,3.82,8.533,8.533C204.786,132.685,200.974,136.497,196.267,136.511z" data-original="#000000" class="active-path" data-old_color="#000000" fill="#2C88D9"/>
		</g>
	</g>
</g></g> </svg>
